<svg width="20" height="24" viewBox="0 0 20 24" fill="none" xmlns="http://www.w3.org/2000/svg">
<circle cx="8" cy="15.407" r="8" fill="#FF974A"/>
<path d="M11.1059 1.86425C11.0474 1.31507 11.4452 0.822445 11.9944 0.76394L14.0063 0.5496C14.5464 0.492069 15.0336 0.876067 15.1039 1.41458L16.8783 15.0137C16.9467 15.5376 16.5956 16.0244 16.0769 16.1248L13.7641 16.5728C13.1889 16.6842 12.6416 16.2795 12.5796 15.6969L11.1059 1.86425Z" fill="#FF974A"/>
<circle cx="11" cy="16.407" r="6" fill="#D8640F"/>
<path d="M12.4654 2.35757C11.8734 1.76586 12.2269 0.752155 13.0584 0.656817L17.0941 0.194113C17.5848 0.137853 18.0431 0.448263 18.1729 0.924812L18.9235 3.68083C19.1399 4.4755 18.3567 5.17646 17.5908 4.87352L13.4669 3.24236C13.3399 3.1921 13.2245 3.11632 13.1278 3.01972L12.4654 2.35757Z" fill="#FF974A"/>
</svg>
