<?xml version="1.0" standalone="no"?>
<!DOCTYPE svg PUBLIC "-//W3C//DTD SVG 20010904//EN"
 "http://www.w3.org/TR/2001/REC-SVG-20010904/DTD/svg10.dtd">
<svg version="1.0" xmlns="http://www.w3.org/2000/svg"
 width="512.000000pt" height="512.000000pt" viewBox="0 0 512.000000 512.000000"
 preserveAspectRatio="xMidYMid meet">
<metadata>
Created by potrace 1.14, written by Peter Selinger 2001-2017
</metadata>
<g transform="translate(0.000000,512.000000) scale(0.100000,-0.100000)"
fill="#000000" stroke="none">
<path d="M4138 5075 c-2 -2 -37 -6 -78 -10 -41 -3 -82 -8 -90 -10 -8 -2 -44
-7 -80 -10 -36 -4 -78 -9 -95 -11 -16 -2 -59 -6 -95 -9 -36 -4 -72 -8 -80 -10
-8 -2 -46 -7 -85 -10 -38 -4 -81 -8 -95 -10 -14 -2 -50 -7 -80 -10 -269 -27
-307 -33 -351 -55 -51 -27 -117 -105 -133 -159 -13 -43 -13 -97 -2 -201 3 -25
7 -67 10 -95 6 -49 11 -103 21 -200 3 -27 7 -68 10 -90 3 -22 12 -107 20 -190
8 -82 17 -166 20 -185 2 -19 7 -60 10 -90 3 -30 7 -71 10 -90 5 -37 11 -100
20 -190 3 -30 8 -77 11 -103 l6 -49 -44 24 c-133 73 -315 130 -548 173 -57 10
-370 14 -430 5 -30 -4 -75 -11 -100 -14 -148 -22 -374 -97 -519 -174 -265
-141 -490 -345 -654 -593 -31 -47 -57 -91 -57 -97 0 -6 -3 -12 -8 -14 -12 -5
-102 -203 -132 -292 -31 -94 -66 -247 -79 -356 -10 -77 -8 -364 3 -435 40
-264 132 -507 272 -723 31 -48 59 -89 63 -92 3 -3 32 -37 64 -76 57 -71 159
-172 230 -229 21 -16 44 -35 51 -42 39 -35 201 -132 308 -183 115 -55 307
-121 388 -133 19 -3 62 -11 95 -17 76 -15 392 -21 465 -9 30 5 73 11 95 15 95
13 264 61 355 99 110 46 175 77 190 91 8 7 38 18 65 25 403 96 685 297 888
634 79 133 134 293 164 480 15 90 7 328 -13 430 -3 11 -7 51 -9 89 -3 38 -7
81 -10 95 -5 31 -13 91 -20 145 -2 21 -7 55 -9 75 -3 20 -10 74 -16 121 -6 47
-12 99 -15 115 -2 17 -7 53 -10 80 -4 28 -8 61 -10 74 -3 14 -7 51 -10 84 -4
32 -8 68 -10 79 -3 12 -7 44 -10 72 -3 28 -8 62 -10 76 -5 32 -14 94 -20 144
-2 21 -7 55 -9 75 -3 20 -10 74 -16 121 -12 98 -20 153 -26 195 -2 17 -6 48
-9 70 -14 116 -26 203 -29 225 -2 14 -8 52 -11 85 -11 90 -18 141 -30 230 -17
121 -26 198 -23 200 2 1 14 -2 28 -8 14 -5 30 -11 35 -13 6 -1 84 -33 175 -69
131 -54 176 -68 220 -68 70 -1 127 12 156 36 96 78 119 124 119 237 -1 47 -6
94 -12 106 -7 11 -14 32 -17 45 -10 49 -15 67 -61 233 -25 93 -53 183 -62 199
-22 43 -81 97 -128 118 -34 15 -119 31 -127 24z"/>
</g>
</svg>
